<svg xmlns="http://www.w3.org/2000/svg" xmlns:xlink="http://www.w3.org/1999/xlink" width="869" zoomAndPan="magnify" viewBox="0 0 651.75 104.999996" height="140" preserveAspectRatio="xMidYMid meet" version="1.0"><defs><g/><clipPath id="79f6f6246e"><path d="M 4 20.238281 L 101 20.238281 L 101 100.457031 L 4 100.457031 Z M 4 20.238281 " clip-rule="nonzero"/></clipPath></defs><g clip-path="url(#79f6f6246e)"><path fill="#ffffff" d="M 51.679688 89.136719 L 51.679688 100.550781 L 37.75 100.550781 L 37.75 80.925781 C 28.59375 74.601562 20.265625 66.859375 14.148438 58.46875 C 0.0195312 39.195312 2.433594 23.179688 18.714844 20.238281 C 6.382812 24.683594 5.5 39.046875 17.953125 56.054688 C 32.988281 76.625 61.886719 93.285156 82.429688 93.285156 C 92.847656 93.285156 99.117188 89.019531 100.851562 82.160156 C 100.441406 91.3125 93.671875 97.195312 81.222656 97.195312 C 72.304688 97.203125 61.914062 94.199219 51.679688 89.136719 Z M 51.679688 89.136719 " fill-opacity="1" fill-rule="evenodd"/></g><path fill="#8c52ff" d="M 37.75 34.785156 L 14.292969 34.785156 C 14.703125 40.175781 17.386719 46.589844 22.441406 53.503906 C 26.589844 59.183594 31.863281 64.511719 37.75 69.21875 Z M 15.539062 27.070312 C 17.152344 25.273438 20.539062 21.980469 27.542969 21.980469 L 76.605469 21.980469 L 76.605469 34.785156 L 51.679688 34.785156 L 51.679688 78.574219 C 62.003906 84.308594 72.839844 87.847656 81.902344 87.847656 C 90.023438 87.847656 95.414062 85.027344 97.828125 80.316406 C 95.914062 86.234375 90.144531 89.851562 80.851562 89.851562 C 61.578125 89.851562 34.527344 74.253906 20.402344 54.984375 C 8.777344 39.058594 9.566406 25.671875 21.046875 21.464844 C 18.503906 22.769531 16.652344 24.710938 15.539062 27.070312 Z M 15.539062 27.070312 " fill-opacity="1" fill-rule="evenodd"/><g fill="#ffbd59" fill-opacity="1"><g transform="translate(128.741916, 96.061778)"><g><path d="M 1.390625 0 L 1.390625 -11.609375 L 9.03125 -11.609375 L 9.03125 -9.390625 L 4.015625 -9.390625 L 4.015625 -6.984375 L 8.578125 -6.984375 L 8.578125 -4.78125 L 4.015625 -4.78125 L 4.015625 -2.234375 L 9.203125 -2.234375 L 9.203125 0 Z M 1.390625 0 "/></g></g></g><g fill="#ffbd59" fill-opacity="1"><g transform="translate(144.104124, 96.061778)"><g><path d="M 1.390625 0 L 1.390625 -11.609375 L 3.640625 -11.609375 L 7.765625 -5.59375 L 11.875 -11.609375 L 14.109375 -11.609375 L 14.109375 0 L 11.484375 0 L 11.484375 -6.984375 L 8.65625 -2.875 L 6.84375 -2.875 L 4.015625 -7 L 4.015625 0 Z M 1.390625 0 "/></g></g></g><g fill="#ffbd59" fill-opacity="1"><g transform="translate(164.906985, 96.061778)"><g><path d="M 1.390625 0 L 1.390625 -11.609375 L 5.9375 -11.609375 C 6.875 -11.609375 7.6875 -11.4375 8.375 -11.09375 C 9.0625 -10.757812 9.59375 -10.273438 9.96875 -9.640625 C 10.351562 -9.003906 10.546875 -8.265625 10.546875 -7.421875 C 10.546875 -6.578125 10.351562 -5.835938 9.96875 -5.203125 C 9.59375 -4.578125 9.0625 -4.09375 8.375 -3.75 C 7.6875 -3.40625 6.875 -3.234375 5.9375 -3.234375 L 4.03125 -3.234375 L 4.03125 0 Z M 4.015625 -5.515625 L 5.71875 -5.515625 C 6.40625 -5.515625 6.929688 -5.675781 7.296875 -6 C 7.671875 -6.320312 7.859375 -6.789062 7.859375 -7.40625 C 7.859375 -8.007812 7.671875 -8.476562 7.296875 -8.8125 C 6.929688 -9.144531 6.40625 -9.3125 5.71875 -9.3125 L 4.015625 -9.3125 Z M 4.015625 -5.515625 "/></g></g></g><g fill="#ffbd59" fill-opacity="1"><g transform="translate(181.247849, 96.061778)"><g><path d="M 6.90625 0.234375 C 5.695312 0.234375 4.625 -0.0195312 3.6875 -0.53125 C 2.757812 -1.050781 2.03125 -1.765625 1.5 -2.671875 C 0.976562 -3.578125 0.71875 -4.625 0.71875 -5.8125 C 0.71875 -6.988281 0.976562 -8.03125 1.5 -8.9375 C 2.03125 -9.84375 2.757812 -10.550781 3.6875 -11.0625 C 4.625 -11.582031 5.695312 -11.84375 6.90625 -11.84375 C 8.125 -11.84375 9.195312 -11.582031 10.125 -11.0625 C 11.050781 -10.550781 11.78125 -9.84375 12.3125 -8.9375 C 12.84375 -8.03125 13.109375 -6.988281 13.109375 -5.8125 C 13.109375 -4.625 12.84375 -3.578125 12.3125 -2.671875 C 11.78125 -1.765625 11.050781 -1.050781 10.125 -0.53125 C 9.195312 -0.0195312 8.125 0.234375 6.90625 0.234375 Z M 3.40625 -5.8125 C 3.40625 -5.113281 3.550781 -4.5 3.84375 -3.96875 C 4.144531 -3.4375 4.554688 -3.019531 5.078125 -2.71875 C 5.609375 -2.414062 6.21875 -2.265625 6.90625 -2.265625 C 7.601562 -2.265625 8.210938 -2.414062 8.734375 -2.71875 C 9.265625 -3.019531 9.675781 -3.4375 9.96875 -3.96875 C 10.257812 -4.5 10.40625 -5.113281 10.40625 -5.8125 C 10.40625 -6.507812 10.257812 -7.125 9.96875 -7.65625 C 9.675781 -8.1875 9.265625 -8.597656 8.734375 -8.890625 C 8.210938 -9.191406 7.601562 -9.34375 6.90625 -9.34375 C 6.21875 -9.34375 5.609375 -9.191406 5.078125 -8.890625 C 4.554688 -8.597656 4.144531 -8.1875 3.84375 -7.65625 C 3.550781 -7.125 3.40625 -6.507812 3.40625 -5.8125 Z M 3.40625 -5.8125 "/></g></g></g><g fill="#ffbd59" fill-opacity="1"><g transform="translate(200.375387, 96.061778)"><g><path d="M 3.90625 0 L 0.171875 -11.609375 L 2.96875 -11.609375 L 4.078125 -8.078125 L 5.3125 -4.265625 L 6.640625 -8.078125 L 7.875 -11.609375 L 10.390625 -11.609375 L 11.625 -8.078125 L 12.96875 -4.21875 L 14.21875 -8.078125 L 15.328125 -11.609375 L 18.125 -11.609375 L 14.375 0 L 11.78125 0 L 9.140625 -7.515625 L 6.5 0 Z M 3.90625 0 "/></g></g></g><g fill="#ffbd59" fill-opacity="1"><g transform="translate(223.964936, 96.061778)"><g><path d="M 1.390625 0 L 1.390625 -11.609375 L 9.03125 -11.609375 L 9.03125 -9.390625 L 4.015625 -9.390625 L 4.015625 -6.984375 L 8.578125 -6.984375 L 8.578125 -4.78125 L 4.015625 -4.78125 L 4.015625 -2.234375 L 9.203125 -2.234375 L 9.203125 0 Z M 1.390625 0 "/></g></g></g><g fill="#ffbd59" fill-opacity="1"><g transform="translate(239.327148, 96.061778)"><g><path d="M 1.390625 0 L 1.390625 -11.609375 L 6.359375 -11.609375 C 7.242188 -11.609375 8.007812 -11.445312 8.65625 -11.125 C 9.3125 -10.8125 9.816406 -10.351562 10.171875 -9.75 C 10.523438 -9.15625 10.703125 -8.441406 10.703125 -7.609375 C 10.703125 -6.765625 10.507812 -6.035156 10.125 -5.421875 C 9.738281 -4.804688 9.195312 -4.34375 8.5 -4.03125 L 10.90625 0 L 7.84375 0 L 5.78125 -3.625 L 4.03125 -3.625 L 4.03125 0 Z M 4 -5.84375 L 6 -5.84375 C 6.65625 -5.84375 7.15625 -5.992188 7.5 -6.296875 C 7.851562 -6.597656 8.03125 -7.03125 8.03125 -7.59375 C 8.03125 -8.164062 7.851562 -8.601562 7.5 -8.90625 C 7.15625 -9.207031 6.65625 -9.359375 6 -9.359375 L 4 -9.359375 Z M 4 -5.84375 "/></g></g></g><g fill="#ffbd59" fill-opacity="1"><g transform="translate(256.314913, 96.061778)"><g><path d="M 1.390625 0 L 1.390625 -11.609375 L 4.03125 -11.609375 L 4.03125 0 Z M 1.390625 0 "/></g></g></g><g fill="#ffbd59" fill-opacity="1"><g transform="translate(267.049232, 96.061778)"><g><path d="M 1.390625 0 L 1.390625 -11.609375 L 3.640625 -11.609375 L 8.765625 -4.546875 L 8.765625 -11.609375 L 11.390625 -11.609375 L 11.390625 0 L 9.140625 0 L 4.015625 -7.125 L 4.015625 0 Z M 1.390625 0 "/></g></g></g><g fill="#ffbd59" fill-opacity="1"><g transform="translate(285.131765, 96.061778)"><g><path d="M 6.796875 0.234375 C 5.617188 0.234375 4.566406 -0.0195312 3.640625 -0.53125 C 2.722656 -1.050781 2.003906 -1.765625 1.484375 -2.671875 C 0.972656 -3.578125 0.71875 -4.625 0.71875 -5.8125 C 0.71875 -6.988281 0.972656 -8.03125 1.484375 -8.9375 C 1.992188 -9.84375 2.707031 -10.550781 3.625 -11.0625 C 4.539062 -11.582031 5.582031 -11.84375 6.75 -11.84375 C 7.695312 -11.84375 8.566406 -11.675781 9.359375 -11.34375 C 10.148438 -11.019531 10.828125 -10.554688 11.390625 -9.953125 C 11.953125 -9.347656 12.347656 -8.632812 12.578125 -7.8125 L 9.734375 -7.8125 C 9.460938 -8.320312 9.066406 -8.71875 8.546875 -9 C 8.035156 -9.28125 7.453125 -9.421875 6.796875 -9.421875 C 6.128906 -9.421875 5.535156 -9.265625 5.015625 -8.953125 C 4.492188 -8.648438 4.085938 -8.226562 3.796875 -7.6875 C 3.503906 -7.144531 3.359375 -6.519531 3.359375 -5.8125 C 3.359375 -5.113281 3.5 -4.492188 3.78125 -3.953125 C 4.070312 -3.410156 4.476562 -2.976562 5 -2.65625 C 5.519531 -2.34375 6.132812 -2.1875 6.84375 -2.1875 C 7.6875 -2.1875 8.390625 -2.398438 8.953125 -2.828125 C 9.523438 -3.265625 9.894531 -3.835938 10.0625 -4.546875 L 6.28125 -4.546875 L 6.28125 -6.59375 L 12.84375 -6.59375 C 12.90625 -5.59375 12.804688 -4.675781 12.546875 -3.84375 C 12.285156 -3.019531 11.882812 -2.300781 11.34375 -1.6875 C 10.8125 -1.070312 10.160156 -0.597656 9.390625 -0.265625 C 8.628906 0.0664062 7.765625 0.234375 6.796875 0.234375 Z M 6.796875 0.234375 "/></g></g></g><g fill="#ffbd59" fill-opacity="1"><g transform="translate(303.977315, 96.061778)"><g/></g></g><g fill="#ffbd59" fill-opacity="1"><g transform="translate(313.18559, 96.061778)"><g><path d="M 1.390625 0 L 1.390625 -11.609375 L 4.03125 -11.609375 L 4.03125 0 Z M 1.390625 0 "/></g></g></g><g fill="#ffbd59" fill-opacity="1"><g transform="translate(323.919909, 96.061778)"><g><path d="M 1.390625 0 L 1.390625 -11.609375 L 5.984375 -11.609375 C 7.210938 -11.609375 8.285156 -11.363281 9.203125 -10.875 C 10.128906 -10.394531 10.84375 -9.71875 11.34375 -8.84375 C 11.851562 -7.96875 12.109375 -6.957031 12.109375 -5.8125 C 12.109375 -4.644531 11.851562 -3.625 11.34375 -2.75 C 10.84375 -1.882812 10.128906 -1.207031 9.203125 -0.71875 C 8.285156 -0.238281 7.210938 0 5.984375 0 Z M 4.03125 -2.421875 L 5.9375 -2.421875 C 6.625 -2.421875 7.226562 -2.5625 7.75 -2.84375 C 8.269531 -3.125 8.675781 -3.519531 8.96875 -4.03125 C 9.257812 -4.539062 9.40625 -5.132812 9.40625 -5.8125 C 9.40625 -6.5 9.257812 -7.09375 8.96875 -7.59375 C 8.675781 -8.09375 8.265625 -8.484375 7.734375 -8.765625 C 7.210938 -9.046875 6.601562 -9.1875 5.90625 -9.1875 L 4.03125 -9.1875 Z M 4.03125 -2.421875 "/></g></g></g><g fill="#ffbd59" fill-opacity="1"><g transform="translate(342.035618, 96.061778)"><g><path d="M 1.390625 0 L 1.390625 -11.609375 L 9.03125 -11.609375 L 9.03125 -9.390625 L 4.015625 -9.390625 L 4.015625 -6.984375 L 8.578125 -6.984375 L 8.578125 -4.78125 L 4.015625 -4.78125 L 4.015625 -2.234375 L 9.203125 -2.234375 L 9.203125 0 Z M 1.390625 0 "/></g></g></g><g fill="#ffbd59" fill-opacity="1"><g transform="translate(357.397835, 96.061778)"><g><path d="M 0.15625 0 L 4.765625 -11.609375 L 7.34375 -11.609375 L 11.96875 0 L 9.140625 0 L 8.359375 -2.015625 L 3.75 -2.015625 L 2.96875 0 Z M 4.4375 -4.078125 L 7.703125 -4.078125 L 6.0625 -8.328125 Z M 4.4375 -4.078125 "/></g></g></g><g fill="#ffbd59" fill-opacity="1"><g transform="translate(374.816888, 96.061778)"><g/></g></g><g fill="#ffbd59" fill-opacity="1"><g transform="translate(384.025163, 96.061778)"><g><path d="M 1.390625 0 L 1.390625 -11.609375 L 9.03125 -11.609375 L 9.03125 -9.390625 L 4.015625 -9.390625 L 4.015625 -6.984375 L 8.578125 -6.984375 L 8.578125 -4.78125 L 4.015625 -4.78125 L 4.015625 -2.234375 L 9.203125 -2.234375 L 9.203125 0 Z M 1.390625 0 "/></g></g></g><g fill="#ffbd59" fill-opacity="1"><g transform="translate(399.38738, 96.061778)"><g><path d="M 1.390625 0 L 1.390625 -11.609375 L 4.03125 -11.609375 L 4.03125 -2.46875 L 9.109375 -2.46875 L 9.109375 0 Z M 1.390625 0 "/></g></g></g><g fill="#ffbd59" fill-opacity="1"><g transform="translate(414.25197, 96.061778)"><g><path d="M 1.390625 0 L 1.390625 -11.609375 L 9.03125 -11.609375 L 9.03125 -9.390625 L 4.015625 -9.390625 L 4.015625 -6.984375 L 8.578125 -6.984375 L 8.578125 -4.78125 L 4.015625 -4.78125 L 4.015625 -2.234375 L 9.203125 -2.234375 L 9.203125 0 Z M 1.390625 0 "/></g></g></g><g fill="#ffbd59" fill-opacity="1"><g transform="translate(429.614188, 96.061778)"><g><path d="M 4.609375 0 L 0.15625 -11.609375 L 2.984375 -11.609375 L 4.53125 -7.484375 L 5.921875 -3.796875 L 8.84375 -11.609375 L 11.671875 -11.609375 L 7.203125 0 Z M 4.609375 0 "/></g></g></g><g fill="#ffbd59" fill-opacity="1"><g transform="translate(446.734665, 96.061778)"><g><path d="M 0.15625 0 L 4.765625 -11.609375 L 7.34375 -11.609375 L 11.96875 0 L 9.140625 0 L 8.359375 -2.015625 L 3.75 -2.015625 L 2.96875 0 Z M 4.4375 -4.078125 L 7.703125 -4.078125 L 6.0625 -8.328125 Z M 4.4375 -4.078125 "/></g></g></g><g fill="#ffbd59" fill-opacity="1"><g transform="translate(464.153718, 96.061778)"><g><path d="M 4.1875 0 L 4.1875 -9.140625 L 0.5 -9.140625 L 0.5 -11.609375 L 10.5 -11.609375 L 10.5 -9.140625 L 6.8125 -9.140625 L 6.8125 0 Z M 4.1875 0 "/></g></g></g><g fill="#ffbd59" fill-opacity="1"><g transform="translate(480.461404, 96.061778)"><g><path d="M 1.390625 0 L 1.390625 -11.609375 L 4.03125 -11.609375 L 4.03125 0 Z M 1.390625 0 "/></g></g></g><g fill="#ffbd59" fill-opacity="1"><g transform="translate(491.195735, 96.061778)"><g><path d="M 1.390625 0 L 1.390625 -11.609375 L 3.640625 -11.609375 L 8.765625 -4.546875 L 8.765625 -11.609375 L 11.390625 -11.609375 L 11.390625 0 L 9.140625 0 L 4.015625 -7.125 L 4.015625 0 Z M 1.390625 0 "/></g></g></g><g fill="#ffbd59" fill-opacity="1"><g transform="translate(509.278268, 96.061778)"><g><path d="M 6.796875 0.234375 C 5.617188 0.234375 4.566406 -0.0195312 3.640625 -0.53125 C 2.722656 -1.050781 2.003906 -1.765625 1.484375 -2.671875 C 0.972656 -3.578125 0.71875 -4.625 0.71875 -5.8125 C 0.71875 -6.988281 0.972656 -8.03125 1.484375 -8.9375 C 1.992188 -9.84375 2.707031 -10.550781 3.625 -11.0625 C 4.539062 -11.582031 5.582031 -11.84375 6.75 -11.84375 C 7.695312 -11.84375 8.566406 -11.675781 9.359375 -11.34375 C 10.148438 -11.019531 10.828125 -10.554688 11.390625 -9.953125 C 11.953125 -9.347656 12.347656 -8.632812 12.578125 -7.8125 L 9.734375 -7.8125 C 9.460938 -8.320312 9.066406 -8.71875 8.546875 -9 C 8.035156 -9.28125 7.453125 -9.421875 6.796875 -9.421875 C 6.128906 -9.421875 5.535156 -9.265625 5.015625 -8.953125 C 4.492188 -8.648438 4.085938 -8.226562 3.796875 -7.6875 C 3.503906 -7.144531 3.359375 -6.519531 3.359375 -5.8125 C 3.359375 -5.113281 3.5 -4.492188 3.78125 -3.953125 C 4.070312 -3.410156 4.476562 -2.976562 5 -2.65625 C 5.519531 -2.34375 6.132812 -2.1875 6.84375 -2.1875 C 7.6875 -2.1875 8.390625 -2.398438 8.953125 -2.828125 C 9.523438 -3.265625 9.894531 -3.835938 10.0625 -4.546875 L 6.28125 -4.546875 L 6.28125 -6.59375 L 12.84375 -6.59375 C 12.90625 -5.59375 12.804688 -4.675781 12.546875 -3.84375 C 12.285156 -3.019531 11.882812 -2.300781 11.34375 -1.6875 C 10.8125 -1.070312 10.160156 -0.597656 9.390625 -0.265625 C 8.628906 0.0664062 7.765625 0.234375 6.796875 0.234375 Z M 6.796875 0.234375 "/></g></g></g><g fill="#ffbd59" fill-opacity="1"><g transform="translate(528.123829, 96.061778)"><g/></g></g><g fill="#ffbd59" fill-opacity="1"><g transform="translate(537.332104, 96.061778)"><g><path d="M 1.390625 0 L 1.390625 -11.609375 L 8.671875 -11.609375 L 8.671875 -9.21875 L 4.03125 -9.21875 L 4.03125 -6.328125 L 8.25 -6.328125 L 8.25 -4 L 4.03125 -4 L 4.03125 0 Z M 1.390625 0 "/></g></g></g><g fill="#ffbd59" fill-opacity="1"><g transform="translate(552.047406, 96.061778)"><g><path d="M 6.140625 0.234375 C 5.128906 0.234375 4.257812 0.03125 3.53125 -0.375 C 2.8125 -0.78125 2.253906 -1.351562 1.859375 -2.09375 C 1.472656 -2.84375 1.28125 -3.738281 1.28125 -4.78125 L 1.28125 -11.609375 L 3.921875 -11.609375 L 3.921875 -4.96875 C 3.921875 -3.164062 4.660156 -2.265625 6.140625 -2.265625 C 7.617188 -2.265625 8.359375 -3.164062 8.359375 -4.96875 L 8.359375 -11.609375 L 11 -11.609375 L 11 -4.78125 C 11 -3.738281 10.800781 -2.84375 10.40625 -2.09375 C 10.019531 -1.351562 9.460938 -0.78125 8.734375 -0.375 C 8.015625 0.03125 7.148438 0.234375 6.140625 0.234375 Z M 6.140625 0.234375 "/></g></g></g><g fill="#ffbd59" fill-opacity="1"><g transform="translate(569.632335, 96.061778)"><g><path d="M 4.1875 0 L 4.1875 -9.140625 L 0.5 -9.140625 L 0.5 -11.609375 L 10.5 -11.609375 L 10.5 -9.140625 L 6.8125 -9.140625 L 6.8125 0 Z M 4.1875 0 "/></g></g></g><g fill="#ffbd59" fill-opacity="1"><g transform="translate(585.940043, 96.061778)"><g><path d="M 6.140625 0.234375 C 5.128906 0.234375 4.257812 0.03125 3.53125 -0.375 C 2.8125 -0.78125 2.253906 -1.351562 1.859375 -2.09375 C 1.472656 -2.84375 1.28125 -3.738281 1.28125 -4.78125 L 1.28125 -11.609375 L 3.921875 -11.609375 L 3.921875 -4.96875 C 3.921875 -3.164062 4.660156 -2.265625 6.140625 -2.265625 C 7.617188 -2.265625 8.359375 -3.164062 8.359375 -4.96875 L 8.359375 -11.609375 L 11 -11.609375 L 11 -4.78125 C 11 -3.738281 10.800781 -2.84375 10.40625 -2.09375 C 10.019531 -1.351562 9.460938 -0.78125 8.734375 -0.375 C 8.015625 0.03125 7.148438 0.234375 6.140625 0.234375 Z M 6.140625 0.234375 "/></g></g></g><g fill="#ffbd59" fill-opacity="1"><g transform="translate(603.524972, 96.061778)"><g><path d="M 1.390625 0 L 1.390625 -11.609375 L 6.359375 -11.609375 C 7.242188 -11.609375 8.007812 -11.445312 8.65625 -11.125 C 9.3125 -10.8125 9.816406 -10.351562 10.171875 -9.75 C 10.523438 -9.15625 10.703125 -8.441406 10.703125 -7.609375 C 10.703125 -6.765625 10.507812 -6.035156 10.125 -5.421875 C 9.738281 -4.804688 9.195312 -4.34375 8.5 -4.03125 L 10.90625 0 L 7.84375 0 L 5.78125 -3.625 L 4.03125 -3.625 L 4.03125 0 Z M 4 -5.84375 L 6 -5.84375 C 6.65625 -5.84375 7.15625 -5.992188 7.5 -6.296875 C 7.851562 -6.597656 8.03125 -7.03125 8.03125 -7.59375 C 8.03125 -8.164062 7.851562 -8.601562 7.5 -8.90625 C 7.15625 -9.207031 6.65625 -9.359375 6 -9.359375 L 4 -9.359375 Z M 4 -5.84375 "/></g></g></g><g fill="#ffbd59" fill-opacity="1"><g transform="translate(620.512748, 96.061778)"><g><path d="M 1.390625 0 L 1.390625 -11.609375 L 9.03125 -11.609375 L 9.03125 -9.390625 L 4.015625 -9.390625 L 4.015625 -6.984375 L 8.578125 -6.984375 L 8.578125 -4.78125 L 4.015625 -4.78125 L 4.015625 -2.234375 L 9.203125 -2.234375 L 9.203125 0 Z M 1.390625 0 "/></g></g></g><g fill="#ffbd59" fill-opacity="1"><g transform="translate(635.875496, 96.061778)"><g/></g></g><g fill="#ffffff" fill-opacity="1"><g transform="translate(128.230509, 56.974449)"><g><path d="M 23.59375 -29.328125 L 23.59375 -23.421875 L 15.421875 -23.421875 L 15.421875 0 L 9.046875 0 L 9.046875 -23.421875 L 0.921875 -23.421875 L 0.921875 -29.328125 Z M 23.59375 -29.328125 "/></g></g></g><g fill="#ffffff" fill-opacity="1"><g transform="translate(152.694405, 56.974449)"><g><path d="M 20.75 -29.328125 L 27.078125 -29.328125 L 27.078125 0 L 20.75 0 L 20.75 -12.109375 L 9.71875 -12.109375 L 9.71875 0 L 3.359375 0 L 3.359375 -29.328125 L 9.71875 -29.328125 L 9.71875 -18.015625 L 20.75 -18.015625 Z M 20.75 -29.328125 "/></g></g></g><g fill="#ffffff" fill-opacity="1"><g transform="translate(183.1486, 56.974449)"><g><path d="M 3.359375 0 L 3.359375 -29.328125 L 9.71875 -29.328125 L 9.71875 0 Z M 3.359375 0 "/></g></g></g><g fill="#ffffff" fill-opacity="1"><g transform="translate(196.218346, 56.974449)"><g><path d="M 13.078125 0.59375 C 10.835938 0.59375 8.863281 0.1875 7.15625 -0.625 C 5.457031 -1.4375 4.125 -2.597656 3.15625 -4.109375 C 2.195312 -5.617188 1.71875 -7.421875 1.71875 -9.515625 L 8.125 -9.515625 C 8.125 -8.085938 8.617188 -7.03125 9.609375 -6.34375 C 10.609375 -5.664062 11.75 -5.328125 13.03125 -5.328125 C 13.84375 -5.328125 14.601562 -5.457031 15.3125 -5.71875 C 16.03125 -5.988281 16.617188 -6.378906 17.078125 -6.890625 C 17.535156 -7.410156 17.765625 -8.035156 17.765625 -8.765625 C 17.765625 -9.515625 17.5 -10.101562 16.96875 -10.53125 C 16.4375 -10.96875 15.722656 -11.328125 14.828125 -11.609375 C 13.941406 -11.890625 12.96875 -12.15625 11.90625 -12.40625 C 10.8125 -12.65625 9.691406 -12.960938 8.546875 -13.328125 C 7.398438 -13.691406 6.335938 -14.171875 5.359375 -14.765625 C 4.378906 -15.367188 3.597656 -16.179688 3.015625 -17.203125 C 2.429688 -18.222656 2.140625 -19.515625 2.140625 -21.078125 C 2.140625 -23.898438 3.09375 -26.070312 5 -27.59375 C 6.914062 -29.113281 9.507812 -29.875 12.78125 -29.875 C 16.132812 -29.875 18.734375 -29.03125 20.578125 -27.34375 C 22.421875 -25.65625 23.34375 -23.359375 23.34375 -20.453125 L 17.0625 -20.453125 C 17.0625 -21.710938 16.613281 -22.640625 15.71875 -23.234375 C 14.820312 -23.835938 13.785156 -24.140625 12.609375 -24.140625 C 11.578125 -24.140625 10.628906 -23.914062 9.765625 -23.46875 C 8.898438 -23.019531 8.46875 -22.320312 8.46875 -21.375 C 8.46875 -20.675781 8.722656 -20.125 9.234375 -19.71875 C 9.753906 -19.3125 10.441406 -18.972656 11.296875 -18.703125 C 12.148438 -18.441406 13.09375 -18.1875 14.125 -17.9375 C 15.238281 -17.65625 16.378906 -17.328125 17.546875 -16.953125 C 18.722656 -16.578125 19.816406 -16.066406 20.828125 -15.421875 C 21.835938 -14.773438 22.65625 -13.921875 23.28125 -12.859375 C 23.90625 -11.796875 24.21875 -10.457031 24.21875 -8.84375 C 24.21875 -6.71875 23.707031 -4.957031 22.6875 -3.5625 C 21.664062 -2.164062 20.316406 -1.125 18.640625 -0.4375 C 16.972656 0.25 15.117188 0.59375 13.078125 0.59375 Z M 13.078125 0.59375 "/></g></g></g><g fill="#ffffff" fill-opacity="1"><g transform="translate(222.148401, 56.974449)"><g><path d="M 2.5625 -8.796875 L 2.5625 -14.703125 L 16.265625 -14.703125 L 16.265625 -8.796875 Z M 2.5625 -8.796875 "/></g></g></g><g fill="#ffffff" fill-opacity="1"><g transform="translate(240.957115, 56.974449)"><g><path d="M 22.84375 0 L 20.78125 -5.578125 L 9.09375 -5.578125 L 7.078125 0 L 0.375 0 L 11.859375 -29.328125 L 17.859375 -29.328125 L 29.71875 0 Z M 14.921875 -21.578125 L 11.109375 -11.109375 L 18.78125 -11.109375 Z M 14.921875 -21.578125 "/></g></g></g><g fill="#ffffff" fill-opacity="1"><g transform="translate(271.034303, 56.974449)"><g><path d="M 3.359375 0 L 3.359375 -29.328125 L 9.71875 -29.328125 L 9.71875 0 Z M 3.359375 0 "/></g></g></g></svg>