<svg xmlns="http://www.w3.org/2000/svg" xmlns:xlink="http://www.w3.org/1999/xlink" width="443" zoomAndPan="magnify" viewBox="0 0 332.25 116.249996" height="155" preserveAspectRatio="xMidYMid meet" version="1.0"><defs><g/><clipPath id="8ca2a1dfba"><path d="M 6 22.359375 L 113.214844 22.359375 L 113.214844 111.78125 L 6 111.78125 Z M 6 22.359375 " clip-rule="nonzero"/></clipPath></defs><g clip-path="url(#8ca2a1dfba)"><path fill="#1f1c20" d="M 58.292969 99.152344 L 58.292969 111.875 L 42.769531 111.875 L 42.769531 90 C 32.5625 82.949219 23.28125 74.324219 16.464844 64.96875 C 0.714844 43.484375 3.40625 25.636719 21.550781 22.359375 C 7.804688 27.3125 6.824219 43.324219 20.699219 62.277344 C 37.460938 85.203125 69.671875 103.773438 92.570312 103.773438 C 104.179688 103.773438 111.167969 99.019531 113.097656 91.375 C 112.644531 101.578125 105.097656 108.132812 91.222656 108.132812 C 81.28125 108.140625 69.703125 104.792969 58.292969 99.152344 Z M 58.292969 99.152344 " fill-opacity="1" fill-rule="evenodd"/></g><path fill="#8c52ff" d="M 42.769531 38.570312 L 16.625 38.570312 C 17.078125 44.578125 20.074219 51.726562 25.707031 59.433594 C 30.328125 65.765625 36.203125 71.703125 42.769531 76.953125 Z M 18.011719 29.972656 C 19.8125 27.972656 23.582031 24.300781 31.390625 24.300781 L 86.074219 24.300781 L 86.074219 38.570312 L 58.292969 38.570312 L 58.292969 87.378906 C 69.800781 93.769531 81.878906 97.714844 91.980469 97.714844 C 101.035156 97.714844 107.042969 94.570312 109.730469 89.320312 C 107.597656 95.914062 101.164062 99.949219 90.808594 99.949219 C 69.328125 99.949219 39.179688 82.566406 23.429688 61.082031 C 10.476562 43.332031 11.355469 28.417969 24.148438 23.722656 C 21.316406 25.179688 19.253906 27.34375 18.011719 29.972656 Z M 18.011719 29.972656 " fill-opacity="1" fill-rule="evenodd"/><g fill="#d17b11" fill-opacity="1"><g transform="translate(121.225145, 95.493972)"><g><path d="M 0.96875 0 L 0.96875 -8.0625 L 6.265625 -8.0625 L 6.265625 -6.515625 L 2.78125 -6.515625 L 2.78125 -4.84375 L 5.953125 -4.84375 L 5.953125 -3.3125 L 2.78125 -3.3125 L 2.78125 -1.546875 L 6.390625 -1.546875 L 6.390625 0 Z M 0.96875 0 "/></g></g></g><g fill="#d17b11" fill-opacity="1"><g transform="translate(131.892079, 95.493972)"><g><path d="M 0.96875 0 L 0.96875 -8.0625 L 2.515625 -8.0625 L 5.390625 -3.875 L 8.25 -8.0625 L 9.78125 -8.0625 L 9.78125 0 L 7.96875 0 L 7.96875 -4.84375 L 6.015625 -2 L 4.75 -2 L 2.78125 -4.859375 L 2.78125 0 Z M 0.96875 0 "/></g></g></g><g fill="#d17b11" fill-opacity="1"><g transform="translate(146.336109, 95.493972)"><g><path d="M 0.96875 0 L 0.96875 -8.0625 L 4.125 -8.0625 C 4.769531 -8.0625 5.332031 -7.941406 5.8125 -7.703125 C 6.289062 -7.460938 6.660156 -7.125 6.921875 -6.6875 C 7.191406 -6.25 7.328125 -5.734375 7.328125 -5.140625 C 7.328125 -4.554688 7.191406 -4.046875 6.921875 -3.609375 C 6.660156 -3.171875 6.289062 -2.832031 5.8125 -2.59375 C 5.332031 -2.363281 4.769531 -2.25 4.125 -2.25 L 2.796875 -2.25 L 2.796875 0 Z M 2.78125 -3.828125 L 3.96875 -3.828125 C 4.445312 -3.828125 4.8125 -3.9375 5.0625 -4.15625 C 5.320312 -4.382812 5.453125 -4.710938 5.453125 -5.140625 C 5.453125 -5.554688 5.320312 -5.878906 5.0625 -6.109375 C 4.8125 -6.335938 4.445312 -6.453125 3.96875 -6.453125 L 2.78125 -6.453125 Z M 2.78125 -3.828125 "/></g></g></g><g fill="#d17b11" fill-opacity="1"><g transform="translate(157.682455, 95.493972)"><g><path d="M 4.796875 0.15625 C 3.953125 0.15625 3.207031 -0.0195312 2.5625 -0.375 C 1.914062 -0.726562 1.410156 -1.21875 1.046875 -1.84375 C 0.679688 -2.476562 0.5 -3.207031 0.5 -4.03125 C 0.5 -4.851562 0.679688 -5.578125 1.046875 -6.203125 C 1.410156 -6.835938 1.914062 -7.332031 2.5625 -7.6875 C 3.207031 -8.039062 3.953125 -8.21875 4.796875 -8.21875 C 5.640625 -8.21875 6.378906 -8.039062 7.015625 -7.6875 C 7.660156 -7.332031 8.164062 -6.835938 8.53125 -6.203125 C 8.90625 -5.578125 9.09375 -4.851562 9.09375 -4.03125 C 9.09375 -3.207031 8.90625 -2.476562 8.53125 -1.84375 C 8.164062 -1.21875 7.660156 -0.726562 7.015625 -0.375 C 6.378906 -0.0195312 5.640625 0.15625 4.796875 0.15625 Z M 2.359375 -4.03125 C 2.359375 -3.550781 2.460938 -3.125 2.671875 -2.75 C 2.878906 -2.382812 3.164062 -2.097656 3.53125 -1.890625 C 3.894531 -1.679688 4.316406 -1.578125 4.796875 -1.578125 C 5.273438 -1.578125 5.695312 -1.679688 6.0625 -1.890625 C 6.425781 -2.097656 6.707031 -2.382812 6.90625 -2.75 C 7.113281 -3.125 7.21875 -3.550781 7.21875 -4.03125 C 7.21875 -4.507812 7.113281 -4.929688 6.90625 -5.296875 C 6.707031 -5.671875 6.425781 -5.960938 6.0625 -6.171875 C 5.695312 -6.378906 5.273438 -6.484375 4.796875 -6.484375 C 4.316406 -6.484375 3.894531 -6.378906 3.53125 -6.171875 C 3.164062 -5.960938 2.878906 -5.671875 2.671875 -5.296875 C 2.460938 -4.929688 2.359375 -4.507812 2.359375 -4.03125 Z M 2.359375 -4.03125 "/></g></g></g><g fill="#d17b11" fill-opacity="1"><g transform="translate(170.963419, 95.493972)"><g><path d="M 2.703125 0 L 0.109375 -8.0625 L 2.0625 -8.0625 L 2.828125 -5.609375 L 3.6875 -2.953125 L 4.609375 -5.609375 L 5.46875 -8.0625 L 7.203125 -8.0625 L 8.078125 -5.609375 L 9 -2.921875 L 9.875 -5.609375 L 10.640625 -8.0625 L 12.578125 -8.0625 L 9.96875 0 L 8.171875 0 L 6.34375 -5.21875 L 4.515625 0 Z M 2.703125 0 "/></g></g></g><g fill="#d17b11" fill-opacity="1"><g transform="translate(187.342054, 95.493972)"><g><path d="M 0.96875 0 L 0.96875 -8.0625 L 6.265625 -8.0625 L 6.265625 -6.515625 L 2.78125 -6.515625 L 2.78125 -4.84375 L 5.953125 -4.84375 L 5.953125 -3.3125 L 2.78125 -3.3125 L 2.78125 -1.546875 L 6.390625 -1.546875 L 6.390625 0 Z M 0.96875 0 "/></g></g></g><g fill="#d17b11" fill-opacity="1"><g transform="translate(198.008988, 95.493972)"><g><path d="M 0.96875 0 L 0.96875 -8.0625 L 4.40625 -8.0625 C 5.019531 -8.0625 5.550781 -7.945312 6 -7.71875 C 6.457031 -7.5 6.804688 -7.179688 7.046875 -6.765625 C 7.296875 -6.359375 7.421875 -5.863281 7.421875 -5.28125 C 7.421875 -4.695312 7.285156 -4.191406 7.015625 -3.765625 C 6.753906 -3.335938 6.378906 -3.015625 5.890625 -2.796875 L 7.5625 0 L 5.453125 0 L 4 -2.515625 L 2.796875 -2.515625 L 2.796875 0 Z M 2.78125 -4.046875 L 4.171875 -4.046875 C 4.617188 -4.046875 4.960938 -4.148438 5.203125 -4.359375 C 5.453125 -4.578125 5.578125 -4.882812 5.578125 -5.28125 C 5.578125 -5.664062 5.453125 -5.960938 5.203125 -6.171875 C 4.960938 -6.390625 4.617188 -6.5 4.171875 -6.5 L 2.78125 -6.5 Z M 2.78125 -4.046875 "/></g></g></g><g fill="#d17b11" fill-opacity="1"><g transform="translate(209.804445, 95.493972)"><g><path d="M 0.96875 0 L 0.96875 -8.0625 L 2.796875 -8.0625 L 2.796875 0 Z M 0.96875 0 "/></g></g></g><g fill="#d17b11" fill-opacity="1"><g transform="translate(217.258545, 95.493972)"><g><path d="M 0.96875 0 L 0.96875 -8.0625 L 2.515625 -8.0625 L 6.078125 -3.15625 L 6.078125 -8.0625 L 7.90625 -8.0625 L 7.90625 0 L 6.34375 0 L 2.78125 -4.9375 L 2.78125 0 Z M 0.96875 0 "/></g></g></g><g fill="#d17b11" fill-opacity="1"><g transform="translate(229.814015, 95.493972)"><g><path d="M 4.71875 0.15625 C 3.894531 0.15625 3.164062 -0.0195312 2.53125 -0.375 C 1.894531 -0.726562 1.394531 -1.21875 1.03125 -1.84375 C 0.675781 -2.476562 0.5 -3.207031 0.5 -4.03125 C 0.5 -4.851562 0.675781 -5.578125 1.03125 -6.203125 C 1.382812 -6.835938 1.878906 -7.332031 2.515625 -7.6875 C 3.148438 -8.039062 3.875 -8.21875 4.6875 -8.21875 C 5.34375 -8.21875 5.945312 -8.101562 6.5 -7.875 C 7.050781 -7.644531 7.519531 -7.320312 7.90625 -6.90625 C 8.289062 -6.488281 8.566406 -5.992188 8.734375 -5.421875 L 6.765625 -5.421875 C 6.566406 -5.773438 6.289062 -6.050781 5.9375 -6.25 C 5.582031 -6.445312 5.175781 -6.546875 4.71875 -6.546875 C 4.25 -6.546875 3.832031 -6.4375 3.46875 -6.21875 C 3.113281 -6 2.832031 -5.703125 2.625 -5.328125 C 2.425781 -4.953125 2.328125 -4.519531 2.328125 -4.03125 C 2.328125 -3.550781 2.425781 -3.117188 2.625 -2.734375 C 2.820312 -2.359375 3.097656 -2.0625 3.453125 -1.84375 C 3.816406 -1.625 4.25 -1.515625 4.75 -1.515625 C 5.332031 -1.515625 5.820312 -1.664062 6.21875 -1.96875 C 6.613281 -2.269531 6.867188 -2.664062 6.984375 -3.15625 L 4.359375 -3.15625 L 4.359375 -4.578125 L 8.90625 -4.578125 C 8.957031 -3.878906 8.890625 -3.242188 8.703125 -2.671875 C 8.523438 -2.097656 8.25 -1.597656 7.875 -1.171875 C 7.507812 -0.742188 7.054688 -0.414062 6.515625 -0.1875 C 5.984375 0.0390625 5.382812 0.15625 4.71875 0.15625 Z M 4.71875 0.15625 "/></g></g></g><g fill="#d17b11" fill-opacity="1"><g transform="translate(242.899203, 95.493972)"><g/></g></g><g fill="#d17b11" fill-opacity="1"><g transform="translate(249.293875, 95.493972)"><g><path d="M 0.96875 0 L 0.96875 -8.0625 L 2.796875 -8.0625 L 2.796875 0 Z M 0.96875 0 "/></g></g></g><g fill="#d17b11" fill-opacity="1"><g transform="translate(256.747981, 95.493972)"><g><path d="M 0.96875 0 L 0.96875 -8.0625 L 4.15625 -8.0625 C 5.007812 -8.0625 5.753906 -7.890625 6.390625 -7.546875 C 7.023438 -7.210938 7.519531 -6.742188 7.875 -6.140625 C 8.226562 -5.535156 8.40625 -4.832031 8.40625 -4.03125 C 8.40625 -3.226562 8.226562 -2.523438 7.875 -1.921875 C 7.519531 -1.316406 7.023438 -0.84375 6.390625 -0.5 C 5.753906 -0.164062 5.007812 0 4.15625 0 Z M 2.796875 -1.6875 L 4.125 -1.6875 C 4.601562 -1.6875 5.019531 -1.78125 5.375 -1.96875 C 5.738281 -2.164062 6.019531 -2.441406 6.21875 -2.796875 C 6.425781 -3.148438 6.53125 -3.5625 6.53125 -4.03125 C 6.53125 -4.507812 6.425781 -4.921875 6.21875 -5.265625 C 6.019531 -5.617188 5.738281 -5.890625 5.375 -6.078125 C 5.007812 -6.273438 4.582031 -6.375 4.09375 -6.375 L 2.796875 -6.375 Z M 2.796875 -1.6875 "/></g></g></g><g fill="#d17b11" fill-opacity="1"><g transform="translate(269.326489, 95.493972)"><g><path d="M 0.96875 0 L 0.96875 -8.0625 L 6.265625 -8.0625 L 6.265625 -6.515625 L 2.78125 -6.515625 L 2.78125 -4.84375 L 5.953125 -4.84375 L 5.953125 -3.3125 L 2.78125 -3.3125 L 2.78125 -1.546875 L 6.390625 -1.546875 L 6.390625 0 Z M 0.96875 0 "/></g></g></g><g fill="#d17b11" fill-opacity="1"><g transform="translate(279.993417, 95.493972)"><g><path d="M 0.109375 0 L 3.3125 -8.0625 L 5.09375 -8.0625 L 8.296875 0 L 6.34375 0 L 5.796875 -1.390625 L 2.609375 -1.390625 L 2.0625 0 Z M 3.078125 -2.828125 L 5.34375 -2.828125 L 4.203125 -5.78125 Z M 3.078125 -2.828125 "/></g></g></g><g fill="#d17b11" fill-opacity="1"><g transform="translate(121.225145, 108.907432)"><g><path d="M 0.96875 0 L 0.96875 -8.0625 L 6.265625 -8.0625 L 6.265625 -6.515625 L 2.78125 -6.515625 L 2.78125 -4.84375 L 5.953125 -4.84375 L 5.953125 -3.3125 L 2.78125 -3.3125 L 2.78125 -1.546875 L 6.390625 -1.546875 L 6.390625 0 Z M 0.96875 0 "/></g></g></g><g fill="#d17b11" fill-opacity="1"><g transform="translate(131.892079, 108.907432)"><g><path d="M 0.96875 0 L 0.96875 -8.0625 L 2.796875 -8.0625 L 2.796875 -1.71875 L 6.328125 -1.71875 L 6.328125 0 Z M 0.96875 0 "/></g></g></g><g fill="#d17b11" fill-opacity="1"><g transform="translate(142.213548, 108.907432)"><g><path d="M 0.96875 0 L 0.96875 -8.0625 L 6.265625 -8.0625 L 6.265625 -6.515625 L 2.78125 -6.515625 L 2.78125 -4.84375 L 5.953125 -4.84375 L 5.953125 -3.3125 L 2.78125 -3.3125 L 2.78125 -1.546875 L 6.390625 -1.546875 L 6.390625 0 Z M 0.96875 0 "/></g></g></g><g fill="#d17b11" fill-opacity="1"><g transform="translate(152.880482, 108.907432)"><g><path d="M 3.203125 0 L 0.109375 -8.0625 L 2.078125 -8.0625 L 3.140625 -5.1875 L 4.109375 -2.640625 L 6.140625 -8.0625 L 8.09375 -8.0625 L 5 0 Z M 3.203125 0 "/></g></g></g><g fill="#d17b11" fill-opacity="1"><g transform="translate(164.768065, 108.907432)"><g><path d="M 0.109375 0 L 3.3125 -8.0625 L 5.09375 -8.0625 L 8.296875 0 L 6.34375 0 L 5.796875 -1.390625 L 2.609375 -1.390625 L 2.0625 0 Z M 3.078125 -2.828125 L 5.34375 -2.828125 L 4.203125 -5.78125 Z M 3.078125 -2.828125 "/></g></g></g><g fill="#d17b11" fill-opacity="1"><g transform="translate(176.862924, 108.907432)"><g><path d="M 2.90625 0 L 2.90625 -6.34375 L 0.34375 -6.34375 L 0.34375 -8.0625 L 7.296875 -8.0625 L 7.296875 -6.34375 L 4.734375 -6.34375 L 4.734375 0 Z M 2.90625 0 "/></g></g></g><g fill="#d17b11" fill-opacity="1"><g transform="translate(188.186245, 108.907432)"><g><path d="M 0.96875 0 L 0.96875 -8.0625 L 2.796875 -8.0625 L 2.796875 0 Z M 0.96875 0 "/></g></g></g><g fill="#d17b11" fill-opacity="1"><g transform="translate(195.640345, 108.907432)"><g><path d="M 0.96875 0 L 0.96875 -8.0625 L 2.515625 -8.0625 L 6.078125 -3.15625 L 6.078125 -8.0625 L 7.90625 -8.0625 L 7.90625 0 L 6.34375 0 L 2.78125 -4.9375 L 2.78125 0 Z M 0.96875 0 "/></g></g></g><g fill="#d17b11" fill-opacity="1"><g transform="translate(208.195821, 108.907432)"><g><path d="M 4.71875 0.15625 C 3.894531 0.15625 3.164062 -0.0195312 2.53125 -0.375 C 1.894531 -0.726562 1.394531 -1.21875 1.03125 -1.84375 C 0.675781 -2.476562 0.5 -3.207031 0.5 -4.03125 C 0.5 -4.851562 0.675781 -5.578125 1.03125 -6.203125 C 1.382812 -6.835938 1.878906 -7.332031 2.515625 -7.6875 C 3.148438 -8.039062 3.875 -8.21875 4.6875 -8.21875 C 5.34375 -8.21875 5.945312 -8.101562 6.5 -7.875 C 7.050781 -7.644531 7.519531 -7.320312 7.90625 -6.90625 C 8.289062 -6.488281 8.566406 -5.992188 8.734375 -5.421875 L 6.765625 -5.421875 C 6.566406 -5.773438 6.289062 -6.050781 5.9375 -6.25 C 5.582031 -6.445312 5.175781 -6.546875 4.71875 -6.546875 C 4.25 -6.546875 3.832031 -6.4375 3.46875 -6.21875 C 3.113281 -6 2.832031 -5.703125 2.625 -5.328125 C 2.425781 -4.953125 2.328125 -4.519531 2.328125 -4.03125 C 2.328125 -3.550781 2.425781 -3.117188 2.625 -2.734375 C 2.820312 -2.359375 3.097656 -2.0625 3.453125 -1.84375 C 3.816406 -1.625 4.25 -1.515625 4.75 -1.515625 C 5.332031 -1.515625 5.820312 -1.664062 6.21875 -1.96875 C 6.613281 -2.269531 6.867188 -2.664062 6.984375 -3.15625 L 4.359375 -3.15625 L 4.359375 -4.578125 L 8.90625 -4.578125 C 8.957031 -3.878906 8.890625 -3.242188 8.703125 -2.671875 C 8.523438 -2.097656 8.25 -1.597656 7.875 -1.171875 C 7.507812 -0.742188 7.054688 -0.414062 6.515625 -0.1875 C 5.984375 0.0390625 5.382812 0.15625 4.71875 0.15625 Z M 4.71875 0.15625 "/></g></g></g><g fill="#d17b11" fill-opacity="1"><g transform="translate(221.281009, 108.907432)"><g/></g></g><g fill="#d17b11" fill-opacity="1"><g transform="translate(227.675681, 108.907432)"><g><path d="M 0.96875 0 L 0.96875 -8.0625 L 6.015625 -8.0625 L 6.015625 -6.40625 L 2.796875 -6.40625 L 2.796875 -4.390625 L 5.71875 -4.390625 L 5.71875 -2.78125 L 2.796875 -2.78125 L 2.796875 0 Z M 0.96875 0 "/></g></g></g><g fill="#d17b11" fill-opacity="1"><g transform="translate(237.893511, 108.907432)"><g><path d="M 4.265625 0.15625 C 3.566406 0.15625 2.960938 0.0195312 2.453125 -0.25 C 1.953125 -0.53125 1.566406 -0.929688 1.296875 -1.453125 C 1.023438 -1.972656 0.890625 -2.59375 0.890625 -3.3125 L 0.890625 -8.0625 L 2.71875 -8.0625 L 2.71875 -3.4375 C 2.71875 -2.195312 3.234375 -1.578125 4.265625 -1.578125 C 5.285156 -1.578125 5.796875 -2.195312 5.796875 -3.4375 L 5.796875 -8.0625 L 7.640625 -8.0625 L 7.640625 -3.3125 C 7.640625 -2.59375 7.5 -1.972656 7.21875 -1.453125 C 6.945312 -0.929688 6.5625 -0.53125 6.0625 -0.25 C 5.5625 0.0195312 4.960938 0.15625 4.265625 0.15625 Z M 4.265625 0.15625 "/></g></g></g><g fill="#d17b11" fill-opacity="1"><g transform="translate(250.103516, 108.907432)"><g><path d="M 2.90625 0 L 2.90625 -6.34375 L 0.34375 -6.34375 L 0.34375 -8.0625 L 7.296875 -8.0625 L 7.296875 -6.34375 L 4.734375 -6.34375 L 4.734375 0 Z M 2.90625 0 "/></g></g></g><g fill="#d17b11" fill-opacity="1"><g transform="translate(261.426832, 108.907432)"><g><path d="M 4.265625 0.15625 C 3.566406 0.15625 2.960938 0.0195312 2.453125 -0.25 C 1.953125 -0.53125 1.566406 -0.929688 1.296875 -1.453125 C 1.023438 -1.972656 0.890625 -2.59375 0.890625 -3.3125 L 0.890625 -8.0625 L 2.71875 -8.0625 L 2.71875 -3.4375 C 2.71875 -2.195312 3.234375 -1.578125 4.265625 -1.578125 C 5.285156 -1.578125 5.796875 -2.195312 5.796875 -3.4375 L 5.796875 -8.0625 L 7.640625 -8.0625 L 7.640625 -3.3125 C 7.640625 -2.59375 7.5 -1.972656 7.21875 -1.453125 C 6.945312 -0.929688 6.5625 -0.53125 6.0625 -0.25 C 5.5625 0.0195312 4.960938 0.15625 4.265625 0.15625 Z M 4.265625 0.15625 "/></g></g></g><g fill="#d17b11" fill-opacity="1"><g transform="translate(273.636837, 108.907432)"><g><path d="M 0.96875 0 L 0.96875 -8.0625 L 4.40625 -8.0625 C 5.019531 -8.0625 5.550781 -7.945312 6 -7.71875 C 6.457031 -7.5 6.804688 -7.179688 7.046875 -6.765625 C 7.296875 -6.359375 7.421875 -5.863281 7.421875 -5.28125 C 7.421875 -4.695312 7.285156 -4.191406 7.015625 -3.765625 C 6.753906 -3.335938 6.378906 -3.015625 5.890625 -2.796875 L 7.5625 0 L 5.453125 0 L 4 -2.515625 L 2.796875 -2.515625 L 2.796875 0 Z M 2.78125 -4.046875 L 4.171875 -4.046875 C 4.617188 -4.046875 4.960938 -4.148438 5.203125 -4.359375 C 5.453125 -4.578125 5.578125 -4.882812 5.578125 -5.28125 C 5.578125 -5.664062 5.453125 -5.960938 5.203125 -6.171875 C 4.960938 -6.390625 4.617188 -6.5 4.171875 -6.5 L 2.78125 -6.5 Z M 2.78125 -4.046875 "/></g></g></g><g fill="#d17b11" fill-opacity="1"><g transform="translate(285.432288, 108.907432)"><g><path d="M 0.96875 0 L 0.96875 -8.0625 L 6.265625 -8.0625 L 6.265625 -6.515625 L 2.78125 -6.515625 L 2.78125 -4.84375 L 5.953125 -4.84375 L 5.953125 -3.3125 L 2.78125 -3.3125 L 2.78125 -1.546875 L 6.390625 -1.546875 L 6.390625 0 Z M 0.96875 0 "/></g></g></g><g fill="#d17b11" fill-opacity="1"><g transform="translate(296.100812, 108.907432)"><g/></g></g><g fill="#1f1c20" fill-opacity="1"><g transform="translate(110.103759, 68.770463)"><g><path d="M 28.484375 -35.421875 L 28.484375 -28.28125 L 18.625 -28.28125 L 18.625 0 L 10.921875 0 L 10.921875 -28.28125 L 1.109375 -28.28125 L 1.109375 -35.421875 Z M 28.484375 -35.421875 "/></g></g></g><g fill="#1f1c20" fill-opacity="1"><g transform="translate(139.643107, 68.770463)"><g><path d="M 25.046875 -35.421875 L 32.6875 -35.421875 L 32.6875 0 L 25.046875 0 L 25.046875 -14.625 L 11.734375 -14.625 L 11.734375 0 L 4.046875 0 L 4.046875 -35.421875 L 11.734375 -35.421875 L 11.734375 -21.75 L 25.046875 -21.75 Z M 25.046875 -35.421875 "/></g></g></g><g fill="#1f1c20" fill-opacity="1"><g transform="translate(176.415542, 68.770463)"><g><path d="M 4.046875 0 L 4.046875 -35.421875 L 11.734375 -35.421875 L 11.734375 0 Z M 4.046875 0 "/></g></g></g><g fill="#1f1c20" fill-opacity="1"><g transform="translate(192.196829, 68.770463)"><g><path d="M 15.78125 0.703125 C 13.082031 0.703125 10.703125 0.21875 8.640625 -0.75 C 6.585938 -1.726562 4.976562 -3.128906 3.8125 -4.953125 C 2.65625 -6.773438 2.078125 -8.953125 2.078125 -11.484375 L 9.8125 -11.484375 C 9.8125 -9.765625 10.410156 -8.488281 11.609375 -7.65625 C 12.804688 -6.832031 14.179688 -6.421875 15.734375 -6.421875 C 16.710938 -6.421875 17.628906 -6.582031 18.484375 -6.90625 C 19.347656 -7.226562 20.054688 -7.703125 20.609375 -8.328125 C 21.171875 -8.953125 21.453125 -9.703125 21.453125 -10.578125 C 21.453125 -11.484375 21.128906 -12.195312 20.484375 -12.71875 C 19.847656 -13.25 18.988281 -13.679688 17.90625 -14.015625 C 16.832031 -14.347656 15.65625 -14.664062 14.375 -14.96875 C 13.050781 -15.28125 11.695312 -15.65625 10.3125 -16.09375 C 8.9375 -16.53125 7.65625 -17.109375 6.46875 -17.828125 C 5.289062 -18.554688 4.347656 -19.535156 3.640625 -20.765625 C 2.929688 -21.992188 2.578125 -23.554688 2.578125 -25.453125 C 2.578125 -28.859375 3.734375 -31.476562 6.046875 -33.3125 C 8.359375 -35.15625 11.488281 -36.078125 15.4375 -36.078125 C 19.476562 -36.078125 22.613281 -35.054688 24.84375 -33.015625 C 27.070312 -30.972656 28.1875 -28.195312 28.1875 -24.6875 L 20.59375 -24.6875 C 20.59375 -26.207031 20.050781 -27.328125 18.96875 -28.046875 C 17.894531 -28.773438 16.648438 -29.140625 15.234375 -29.140625 C 13.984375 -29.140625 12.832031 -28.867188 11.78125 -28.328125 C 10.738281 -27.785156 10.21875 -26.941406 10.21875 -25.796875 C 10.21875 -24.953125 10.53125 -24.285156 11.15625 -23.796875 C 11.78125 -23.316406 12.601562 -22.914062 13.625 -22.59375 C 14.65625 -22.269531 15.796875 -21.957031 17.046875 -21.65625 C 18.398438 -21.3125 19.785156 -20.910156 21.203125 -20.453125 C 22.617188 -20.003906 23.929688 -19.390625 25.140625 -18.609375 C 26.359375 -17.835938 27.347656 -16.8125 28.109375 -15.53125 C 28.867188 -14.25 29.25 -12.628906 29.25 -10.671875 C 29.25 -8.109375 28.628906 -5.984375 27.390625 -4.296875 C 26.160156 -2.609375 24.535156 -1.351562 22.515625 -0.53125 C 20.492188 0.289062 18.25 0.703125 15.78125 0.703125 Z M 15.78125 0.703125 "/></g></g></g><g fill="#1f1c20" fill-opacity="1"><g transform="translate(223.506515, 68.770463)"><g><path d="M 3.09375 -10.625 L 3.09375 -17.765625 L 19.625 -17.765625 L 19.625 -10.625 Z M 3.09375 -10.625 "/></g></g></g><g fill="#1f1c20" fill-opacity="1"><g transform="translate(246.217416, 68.770463)"><g><path d="M 27.578125 0 L 25.09375 -6.734375 L 10.984375 -6.734375 L 8.546875 0 L 0.453125 0 L 14.3125 -35.421875 L 21.546875 -35.421875 L 35.875 0 Z M 18.015625 -26.0625 L 13.40625 -13.40625 L 22.671875 -13.40625 Z M 18.015625 -26.0625 "/></g></g></g><g fill="#1f1c20" fill-opacity="1"><g transform="translate(282.534628, 68.770463)"><g><path d="M 4.046875 0 L 4.046875 -35.421875 L 11.734375 -35.421875 L 11.734375 0 Z M 4.046875 0 "/></g></g></g></svg>